<?xml version="1.0" encoding="UTF-8"?>
<svg version="1.1" xmlns="http://www.w3.org/2000/svg" width="500" height="500">
<path d="M0 0 C165 0 330 0 500 0 C500 165 500 330 500 500 C335 500 170 500 0 500 C0 335 0 170 0 0 Z " fill="#FEFEFE" transform="translate(0,0)"/>
<path d="M0 0 C0.68808746 -0.00100708 1.37617493 -0.00201416 2.08511353 -0.00305176 C12.67164171 0.00742096 22.70945891 0.54931501 33 3.25 C34.09828125 3.5284375 35.1965625 3.806875 36.328125 4.09375 C47.2584575 7.27947505 56.13611836 13.36284402 62 23.25 C64.60299097 28.8185414 65.13217004 33.96596088 65.06640625 40.078125 C65.05681885 41.23731445 65.04723145 42.39650391 65.03735352 43.59082031 C65.02502686 44.46834961 65.0127002 45.34587891 65 46.25 C65.77375977 46.23952637 66.54751953 46.22905273 67.34472656 46.21826172 C104.15001415 45.78750354 104.15001415 45.78750354 118 49.25 C118 98.09 118 146.93 118 197.25 C103.3895605 199.68507325 89.44911111 200.34242653 74.6875 200.4375 C73.51960938 200.45055176 72.35171875 200.46360352 71.1484375 200.47705078 C54.67922562 200.49337078 37.70103209 197.52216598 25 186.25 C18.65251789 179.79432217 15.17816953 173.01346976 14.89624023 163.89355469 C14.90856689 162.74790039 14.92089355 161.60224609 14.93359375 160.421875 C14.94318115 159.26268555 14.95276855 158.10349609 14.96264648 156.90917969 C14.97497314 156.03165039 14.9872998 155.15412109 15 154.25 C14.26700684 154.26047363 13.53401367 154.27094727 12.77880859 154.28173828 C-27.41877256 154.77707581 -27.41877256 154.77707581 -38 151.25 C-38 102.41 -38 53.57 -38 3.25 C-25.01462165 1.39494595 -13.04418792 0.01325371 0 0 Z " fill="#030303" transform="translate(210,149.75)"/>
<path d="M0 0 C0.64469238 0.00402832 1.28938477 0.00805664 1.95361328 0.01220703 C4.34957559 0.03305128 6.74513046 0.08889733 9.140625 0.140625 C17.184375 0.264375 17.184375 0.264375 25.390625 0.390625 C25.390625 15.900625 25.390625 31.410625 25.390625 47.390625 C20.585 47.4525 15.779375 47.514375 10.828125 47.578125 C9.34626709 47.60543701 7.86440918 47.63274902 6.33764648 47.66088867 C-6.07690823 47.73705158 -20.09766482 47.38874392 -29.609375 38.390625 C-34.03510851 33.80795058 -34.90768035 29.83944765 -34.984375 23.515625 C-34.81184414 17.79556327 -34.81184414 17.79556327 -33.609375 15.390625 C-31.6335318 14.57911797 -29.62719883 13.84125827 -27.609375 13.140625 C-21.08095465 10.71127868 -14.40193412 7.91005435 -9.96606445 2.31958008 C-6.75161292 -0.311455 -3.96753013 -0.11731696 0 0 Z " fill="#FDFDFD" transform="translate(281.609375,284.609375)"/>
<path d="M0 0 C5.383125 -0.061875 10.76625 -0.12375 16.3125 -0.1875 C17.98739502 -0.21481201 19.66229004 -0.24212402 21.38793945 -0.27026367 C32.99748287 -0.38069596 44.455515 0.63816855 54 8 C58.89043508 12.82980985 60.36185686 17.09179622 60.4375 23.9375 C60.22053232 29.55893536 60.22053232 29.55893536 59 32 C57.37833338 32.64748939 55.72568518 33.21815397 54.0625 33.75 C47.31398519 36.11066383 40.51558737 39.00505016 35.83862305 44.57324219 C32.2998287 47.59858112 29.73383959 47.65364529 25.29296875 47.48828125 C24.64928345 47.48324585 24.00559814 47.47821045 23.34240723 47.47302246 C20.95697966 47.44702516 18.57219122 47.37721735 16.1875 47.3125 C8.1746875 47.1578125 8.1746875 47.1578125 0 47 C0 31.49 0 15.98 0 0 Z " fill="#FDFDFD" transform="translate(193,168)"/>
<path d="M0 0 C1.17193909 0.00453186 1.17193909 0.00453186 2.36755371 0.00915527 C5.26991088 0.02478281 8.17207889 0.06666672 11.07421875 0.10546875 C20.81953125 0.19828125 20.81953125 0.19828125 30.76171875 0.29296875 C30.76171875 18.11296875 30.76171875 35.93296875 30.76171875 54.29296875 C22.51171875 54.29296875 14.26171875 54.29296875 5.76171875 54.29296875 C5.51171875 44.85546875 5.51171875 44.85546875 5.46386719 41.93969727 C5.11080812 32.83356061 2.00830218 25.81549735 -4.1796875 19.1484375 C-9.35051962 14.48782031 -15.49896839 11.06647213 -22.23828125 9.29296875 C-22.23828125 8.63296875 -22.23828125 7.97296875 -22.23828125 7.29296875 C-21.45904297 6.91205078 -21.45904297 6.91205078 -20.6640625 6.5234375 C-19.96667969 6.17925781 -19.26929688 5.83507812 -18.55078125 5.48046875 C-17.86628906 5.14402344 -17.18179687 4.80757812 -16.4765625 4.4609375 C-14.1926582 3.34710792 -14.1926582 3.34710792 -12.17578125 1.73828125 C-8.06597003 -0.28383331 -4.51815375 -0.08274052 0 0 Z " fill="#FBFBFB" transform="translate(276.23828125,213.70703125)"/>
<path d="M0 0 C8.25 0 16.5 0 25 0 C25.0825 2.92875 25.165 5.8575 25.25 8.875 C25.72920677 19.38815521 27.54923581 27.31373381 34.9375 35.1796875 C39.9642272 39.61615506 45.7668803 42.62653449 52 45 C52 45.66 52 46.32 52 47 C50.2421875 48.47265625 50.2421875 48.47265625 47.875 50.0625 C47.10929687 50.58972656 46.34359375 51.11695313 45.5546875 51.66015625 C40.17838767 54.47983644 34.24355573 54.13710312 28.3203125 54.09765625 C27.23834595 54.09614563 27.23834595 54.09614563 26.13452148 54.09460449 C23.4646646 54.08941022 20.79483054 54.07544922 18.125 54.0625 C12.14375 54.041875 6.1625 54.02125 0 54 C0 36.18 0 18.36 0 0 Z " fill="#FBFBFB" transform="translate(193,232)"/>
<path d="M0 0 C6.90395221 0.90479146 11.64277082 3.45667378 16.375 8.5625 C19.6261442 13.4392163 20.26928686 16.87863488 20.125 22.75 C20.11597656 23.44738281 20.10695313 24.14476562 20.09765625 24.86328125 C20.07419888 26.57566958 20.03833104 28.28788004 20 30 C12.78792241 29.2605228 8.30554459 26.9514556 3.640625 21.375 C0.25487098 16.46811012 -0.11619616 12.66538112 -0.0625 6.8125 C-0.05347656 5.54019531 -0.04445312 4.26789063 -0.03515625 2.95703125 C-0.02355469 1.98121094 -0.01195312 1.00539062 0 0 Z " fill="#FAFAFA" transform="translate(240,235)"/>
</svg>
